<?xml version="1.0" encoding="UTF-8" standalone="no"?>
<!-- Created with Inkscape (http://www.inkscape.org/) -->

<svg
   version="1.1"
   id="svg606"
   width="454.57333"
   height="701.33331"
   viewBox="0 0 454.57332 701.3333"
   xmlns="http://www.w3.org/2000/svg"
   xmlns:svg="http://www.w3.org/2000/svg">
  <defs
     id="defs610">
    <clipPath
       clipPathUnits="userSpaceOnUse"
       id="clipPath622">
      <path
         d="M 0,295.739 H 228.526 V 0 H 0 Z"
         id="path620" />
    </clipPath>
  </defs>
  <g
     id="g614"
     transform="matrix(2.6666666,0,0,-2.6666666,-77.413598,744.98451)">
    <g
       id="g616">
      <g
         id="g618"
         clip-path="url(#clipPath622)">
        <g
           id="g624"
           transform="translate(156.8791,144.2182)">
          <path
             d="m 0,0 h -85.232 c -23.538,0 -42.617,-19.08 -42.617,-42.616 v -42.616 c 0,-23.537 19.079,-42.617 42.617,-42.617 H 0 c 23.537,0 42.616,19.08 42.616,42.617 0,23.536 -19.079,42.616 -42.616,42.616 H 42.616 C 42.616,-19.08 23.537,0 0,0 m 0,135.151 h -85.232 c -23.538,0 -42.617,-19.08 -42.617,-42.616 h 42.617 c -23.538,0 -42.617,-19.079 -42.617,-42.616 V 7.302 H 42.616 V 49.919 H 0 c 23.537,0 42.616,19.08 42.616,42.616 0,23.536 -19.079,42.616 -42.616,42.616"
             style="fill:#000000;fill-opacity:1;fill-rule:nonzero;stroke:none"
             id="path626" />
        </g>
        <g
           id="g628"
           transform="translate(79.2931,66.1489)">
          <path
             d="m 0,0 v -24.857 h 7.68 v 8.977 h 5.528 l 1.966,5.432 H 7.68 v 5.032 h 9.308 L 18.947,0 Z"
             style="fill:#ffffff;fill-opacity:1;fill-rule:nonzero;stroke:none"
             id="path630" />
        </g>
        <g
           id="g632"
           transform="translate(100.589,66.1489)">
          <path
             d="M 0,0 0.001,-24.857 H 7.68 V 0 Z"
             style="fill:#ffffff;fill-opacity:1;fill-rule:nonzero;stroke:none"
             id="path634" />
        </g>
        <g
           id="g636"
           transform="translate(113.5534,66.1489)">
          <path
             d="m 0,0 v -24.857 h 7.68 v 8.977 h 5.528 l 1.966,5.432 H 7.68 v 5.032 h 9.308 L 18.947,0 Z"
             style="fill:#ffffff;fill-opacity:1;fill-rule:nonzero;stroke:none"
             id="path638" />
        </g>
        <g
           id="g640"
           transform="translate(141.3898,59.7612)">
          <path
             d="m 0,0 3.069,-10.354 h -6.037 z m -3.871,6.388 -8.989,-24.859 h 7.561 l 0.96,3.34 H 4.34 l 1.003,-3.34 h 7.756 L 4.113,6.388 Z"
             style="fill:#ffffff;fill-opacity:1;fill-rule:nonzero;stroke:none"
             id="path642" />
        </g>
        <g
           id="g644"
           transform="translate(194.9572,20.935)">
          <path
             d="M 0,0 H -0.722 V -4.565 H 0 v 1.818 h 3.662 v 0.922 H 0 Z"
             style="fill:#000000;fill-opacity:1;fill-rule:nonzero;stroke:none"
             id="path646" />
        </g>
        <g
           id="g648"
           transform="translate(198.6193,27.52)">
          <path
             d="m 0,0 h -3.984 c -0.125,0 -0.223,-0.033 -0.293,-0.1 -0.072,-0.067 -0.107,-0.163 -0.107,-0.287 v -1.018 l 3.47,-1.61 -3.47,-1.614 v -1.013 c 0,-0.121 0.035,-0.215 0.107,-0.287 0.07,-0.07 0.168,-0.106 0.293,-0.106 H 0 v 0.896 H -3.661 L 0,-3.462 v 0.883 l -3.661,1.683 H 0 Z"
             style="fill:#000000;fill-opacity:1;fill-rule:nonzero;stroke:none"
             id="path650" />
        </g>
      </g>
    </g>
    <g
       id="g652">
      <g
         id="g654"
         transform="matrix(69.543872,0,0,170.87421,81.623817,80.263971)" />
    </g>
  </g>
</svg>
